<svg xmlns="http://www.w3.org/2000/svg" viewBox="0 570 40 40" fill="none">
  <mask id="kcut" maskUnits="userSpaceOnUse" x="0" y="570" width="40" height="40" maskContentUnits="userSpaceOnUse" mask-type="luminance">
    <rect x="0" y="570" width="40" height="40" fill="white"/>
    <!-- K shape to cut out (black = transparent in mask) -->
    <path d="M14.34 585.72V600H16.24V595L18.62 592.78L23.78 600H26.18L19.92 591.48L25.94 585.72H23.48L16.24 592.84V585.72H14.34Z" fill="black"/>
  </mask>
  <g mask="url(#kcut)">
    <path d="M24.5967 574H3.91713C2.92302 574 2.11713 574.806 2.11713 575.8V599.71C2.11713 600.704 2.92302 601.51 3.91713 601.51H24.5967C25.5908 601.51 26.3967 600.704 26.3967 599.71V575.8C26.3967 574.806 25.5908 574 24.5967 574Z" fill="#3F60A8" fill-opacity="0.4"/>
    <path d="M27.5967 577H6.91713C5.92302 577 5.11713 577.806 5.11713 578.8V602.71C5.11713 603.704 5.92302 604.51 6.91713 604.51H27.5967C28.5908 604.51 29.3967 603.704 29.3967 602.71V578.8C29.3967 577.806 28.5908 577 27.5967 577Z" fill="#3F60A8" fill-opacity="0.4"/>
    <path d="M9.8 580H29.5301C30.5242 580 31.3301 580.806 31.3301 581.8V604.674C31.3301 605.669 30.5242 606.474 29.5301 606.474H9.8C8.80589 606.474 8 605.669 8 604.674V581.8C8 580.806 8.80589 580 9.8 580Z" fill="#3E5FA8"/>
  </g>
</svg>
