<svg xmlns="http://www.w3.org/2000/svg" viewBox="0 0 373 266" fill="none"><path d="M45.7019 266H99.5364L137.255 193.567L111.149 143.46L45.7019 266ZM338.505 141.415L309.069 197.913L343.543 265.169L373 208.437L338.505 141.415ZM329.561 124.116L266.718 2.17304L235.724 56.8387L300.082 180.678L329.561 124.116ZM231.668 198.68L266.718 265.957H326.487L261.51 141.266L231.668 198.68ZM102.226 126.247L72.918 69.7062L35.4984 141.671L64.2514 197.316L102.226 126.247ZM26.7466 158.799L0 211.611L29.4362 265.063L55.521 214.594L26.7466 158.799ZM225.777 73.0936L194.612 128.121L222.745 181.573L252.63 124.159L225.777 73.0936ZM108.224 0L81.3282 52.3223L185.924 252.344L213.823 198.808L160.97 97.38L108.224 0Z" fill="url(#a)"/><defs><linearGradient id="a" x1="186.564" y1="4.218" x2="186.564" y2="357.053" gradientUnits="userSpaceOnUse"><stop stop-color="#F2C144"/><stop offset=".24" stop-color="#F1A03B"/><stop offset=".57" stop-color="#F17A31"/><stop offset=".84" stop-color="#F0632A"/><stop offset="1" stop-color="#F05A28"/></linearGradient></defs></svg>
